<svg id="visual" viewBox="0 0 900 600" width="900" height="600" xmlns="http://www.w3.org/2000/svg" xmlns:xlink="http://www.w3.org/1999/xlink" version="1.1"><g stroke-width="1" stroke-linejoin="bevel"><path d="M425 274L372.5 240L363.5 273Z" fill="#0d0d0d" stroke="#0d0d0d"></path><path d="M425 274L455 192L372.5 240Z" fill="#060606" stroke="#060606"></path><path d="M251 320L305.5 375L363.5 273Z" fill="#202020" stroke="#202020"></path><path d="M363.5 273L305.5 375L425 274Z" fill="#1d1d1d" stroke="#1d1d1d"></path><path d="M305.5 375L493 368L425 274Z" fill="#060606" stroke="#060606"></path><path d="M425 274L547.5 316L455 192Z" fill="#151515" stroke="#151515"></path><path d="M372.5 240L251 320L363.5 273Z" fill="#282828" stroke="#282828"></path><path d="M493 368L547.5 316L425 274Z" fill="#000000" stroke="#000000"></path><path d="M547.5 316L537.5 179L455 192Z" fill="#1d1d1d" stroke="#1d1d1d"></path><path d="M455 192L375.5 95L372.5 240Z" fill="#1d1d1d" stroke="#1d1d1d"></path><path d="M372.5 240L186 228L251 320Z" fill="#191919" stroke="#191919"></path><path d="M421 83L375.5 95L455 192Z" fill="#202020" stroke="#202020"></path><path d="M537.5 179L421 83L455 192Z" fill="#202020" stroke="#202020"></path><path d="M427 534L523.5 394L493 368Z" fill="#060606" stroke="#060606"></path><path d="M493 368L523.5 394L547.5 316Z" fill="#191919" stroke="#191919"></path><path d="M264 0L265 115L375.5 95Z" fill="#1d1d1d" stroke="#1d1d1d"></path><path d="M375.5 95L265 115L372.5 240Z" fill="#191919" stroke="#191919"></path><path d="M265 115L186 228L372.5 240Z" fill="#000000" stroke="#000000"></path><path d="M692 158L577.5 131L537.5 179Z" fill="#111111" stroke="#111111"></path><path d="M537.5 179L577.5 131L421 83Z" fill="#111111" stroke="#111111"></path><path d="M128.5 279L220 416L251 320Z" fill="#151515" stroke="#151515"></path><path d="M251 320L220 416L305.5 375Z" fill="#1d1d1d" stroke="#1d1d1d"></path><path d="M305.5 375L379.5 516L493 368Z" fill="#202020" stroke="#202020"></path><path d="M220 416L379.5 516L305.5 375Z" fill="#191919" stroke="#191919"></path><path d="M427 534L544.5 474L523.5 394Z" fill="#2c2c2c" stroke="#2c2c2c"></path><path d="M641 380L658 291L547.5 316Z" fill="#1d1d1d" stroke="#1d1d1d"></path><path d="M547.5 316L658 291L537.5 179Z" fill="#191919" stroke="#191919"></path><path d="M421 83L369.5 0L375.5 95Z" fill="#1d1d1d" stroke="#1d1d1d"></path><path d="M421 0L369.5 0L421 83Z" fill="#2c2c2c" stroke="#2c2c2c"></path><path d="M641 380L547.5 316L523.5 394Z" fill="#000000" stroke="#000000"></path><path d="M596.5 0L421 0L421 83Z" fill="#282828" stroke="#282828"></path><path d="M186 228L128.5 279L251 320Z" fill="#000000" stroke="#000000"></path><path d="M118.5 173L128.5 279L186 228Z" fill="#282828" stroke="#282828"></path><path d="M379.5 516L427 534L493 368Z" fill="#282828" stroke="#282828"></path><path d="M544.5 474L641 380L523.5 394Z" fill="#191919" stroke="#191919"></path><path d="M77.5 86L118.5 173L265 115Z" fill="#191919" stroke="#191919"></path><path d="M265 115L118.5 173L186 228Z" fill="#151515" stroke="#151515"></path><path d="M369.5 0L264 0L375.5 95Z" fill="#1d1d1d" stroke="#1d1d1d"></path><path d="M220 416L210 505L379.5 516Z" fill="#060606" stroke="#060606"></path><path d="M293.5 600L467 600L427 534Z" fill="#0d0d0d" stroke="#0d0d0d"></path><path d="M98.5 481L210 505L220 416Z" fill="#111111" stroke="#111111"></path><path d="M658 291L692 158L537.5 179Z" fill="#282828" stroke="#282828"></path><path d="M577.5 131L596.5 0L421 83Z" fill="#000000" stroke="#000000"></path><path d="M752.5 288L692 158L658 291Z" fill="#242424" stroke="#242424"></path><path d="M692 158L654 69L577.5 131Z" fill="#191919" stroke="#191919"></path><path d="M654 69L596.5 0L577.5 131Z" fill="#151515" stroke="#151515"></path><path d="M427 534L467 600L544.5 474Z" fill="#000000" stroke="#000000"></path><path d="M544.5 474L678 541L641 380Z" fill="#1d1d1d" stroke="#1d1d1d"></path><path d="M293.5 600L427 534L379.5 516Z" fill="#191919" stroke="#191919"></path><path d="M210 505L293.5 600L379.5 516Z" fill="#282828" stroke="#282828"></path><path d="M0 305L84.5 439L128.5 279Z" fill="#151515" stroke="#151515"></path><path d="M128.5 279L84.5 439L220 416Z" fill="#060606" stroke="#060606"></path><path d="M210 505L210 600L293.5 600Z" fill="#202020" stroke="#202020"></path><path d="M821.5 424L752.5 288L641 380Z" fill="#202020" stroke="#202020"></path><path d="M641 380L752.5 288L658 291Z" fill="#000000" stroke="#000000"></path><path d="M769.5 56L709 0L654 69Z" fill="#202020" stroke="#202020"></path><path d="M264 0L150.5 0L265 115Z" fill="#242424" stroke="#242424"></path><path d="M150.5 0L77.5 86L265 115Z" fill="#242424" stroke="#242424"></path><path d="M0 189L0 305L128.5 279Z" fill="#242424" stroke="#242424"></path><path d="M84.5 439L98.5 481L220 416Z" fill="#111111" stroke="#111111"></path><path d="M467 600L555.5 600L544.5 474Z" fill="#191919" stroke="#191919"></path><path d="M151.5 600L210 600L210 505Z" fill="#2c2c2c" stroke="#2c2c2c"></path><path d="M84.5 439L0 465L98.5 481Z" fill="#242424" stroke="#242424"></path><path d="M0 189L128.5 279L118.5 173Z" fill="#282828" stroke="#282828"></path><path d="M555.5 600L678 541L544.5 474Z" fill="#202020" stroke="#202020"></path><path d="M0 118L0 189L118.5 173Z" fill="#000000" stroke="#000000"></path><path d="M769.5 56L654 69L692 158Z" fill="#111111" stroke="#111111"></path><path d="M654 69L709 0L596.5 0Z" fill="#111111" stroke="#111111"></path><path d="M752.5 288L807.5 228L692 158Z" fill="#2c2c2c" stroke="#2c2c2c"></path><path d="M900 268L807.5 228L752.5 288Z" fill="#000000" stroke="#000000"></path><path d="M98.5 481L151.5 600L210 505Z" fill="#191919" stroke="#191919"></path><path d="M0 600L151.5 600L98.5 481Z" fill="#202020" stroke="#202020"></path><path d="M0 0L0 118L77.5 86Z" fill="#111111" stroke="#111111"></path><path d="M77.5 86L0 118L118.5 173Z" fill="#2c2c2c" stroke="#2c2c2c"></path><path d="M0 305L0 420L84.5 439Z" fill="#111111" stroke="#111111"></path><path d="M807.5 228L769.5 56L692 158Z" fill="#111111" stroke="#111111"></path><path d="M0 420L0 465L84.5 439Z" fill="#0d0d0d" stroke="#0d0d0d"></path><path d="M555.5 600L694 600L678 541Z" fill="#0d0d0d" stroke="#0d0d0d"></path><path d="M678 541L760.5 533L641 380Z" fill="#151515" stroke="#151515"></path><path d="M694 600L760.5 533L678 541Z" fill="#191919" stroke="#191919"></path><path d="M760.5 533L821.5 424L641 380Z" fill="#191919" stroke="#191919"></path><path d="M900 0L773.5 0L769.5 56Z" fill="#242424" stroke="#242424"></path><path d="M769.5 56L773.5 0L709 0Z" fill="#282828" stroke="#282828"></path><path d="M150.5 0L0 0L77.5 86Z" fill="#2c2c2c" stroke="#2c2c2c"></path><path d="M900 356L900 268L752.5 288Z" fill="#202020" stroke="#202020"></path><path d="M807.5 228L900 93L769.5 56Z" fill="#060606" stroke="#060606"></path><path d="M900 268L900 202L807.5 228Z" fill="#2c2c2c" stroke="#2c2c2c"></path><path d="M821.5 424L900 356L752.5 288Z" fill="#2c2c2c" stroke="#2c2c2c"></path><path d="M900 513L900 356L821.5 424Z" fill="#282828" stroke="#282828"></path><path d="M694 600L787.5 600L760.5 533Z" fill="#191919" stroke="#191919"></path><path d="M760.5 533L900 513L821.5 424Z" fill="#282828" stroke="#282828"></path><path d="M0 465L0 600L98.5 481Z" fill="#000000" stroke="#000000"></path><path d="M900 202L900 93L807.5 228Z" fill="#191919" stroke="#191919"></path><path d="M787.5 600L900 513L760.5 533Z" fill="#151515" stroke="#151515"></path><path d="M900 93L900 0L769.5 56Z" fill="#151515" stroke="#151515"></path><path d="M787.5 600L900 600L900 513Z" fill="#242424" stroke="#242424"></path></g></svg>