<svg width="131.392" height="72.728" viewBox="0 0 131.392 72.728" xmlns="http://www.w3.org/2000/svg"><g id="svgGroup" stroke-linecap="round" fill-rule="evenodd" font-size="9pt" stroke="#000" stroke-width="0.25mm" fill="#000" style="stroke:#000;stroke-width:0.25mm;fill:#000"><path d="M 0 72.728 L 0 0 L 1.989 0 L 31.676 69.319 L 31.96 69.319 L 61.648 0 L 63.636 0 L 63.636 72.728 L 61.364 72.728 L 61.364 7.103 L 61.08 7.103 L 32.955 72.728 L 30.682 72.728 L 2.557 7.103 L 2.273 7.103 L 2.273 72.728 L 0 72.728 Z" id="0" vector-effect="non-scaling-stroke"/><path d="M 111.506 72.728 L 86.364 72.728 L 86.364 0 L 109.091 0 Q 115.199 0 119.549 2.22 Q 123.899 4.439 126.225 8.576 Q 128.551 12.713 128.551 18.466 A 24.481 24.481 0 0 1 128.045 23.529 A 20.843 20.843 0 0 1 127.255 26.314 A 16.694 16.694 0 0 1 125.17 30.347 A 14.703 14.703 0 0 1 123.473 32.333 A 12.942 12.942 0 0 1 117.472 35.654 L 117.472 35.938 A 13.231 13.231 0 0 1 124.574 38.672 A 16.1 16.1 0 0 1 128.831 43.628 A 19.511 19.511 0 0 1 129.563 45.064 A 19.847 19.847 0 0 1 131.176 50.759 A 25.341 25.341 0 0 1 131.392 54.12 Q 131.392 59.73 129.031 63.921 A 16.147 16.147 0 0 1 122.212 70.419 A 19.85 19.85 0 0 1 116.802 72.254 Q 114.492 72.698 111.858 72.726 A 33.439 33.439 0 0 1 111.506 72.728 Z M 88.636 36.932 L 88.636 70.455 L 111.506 70.455 A 23.048 23.048 0 0 0 117.025 69.83 A 16.11 16.11 0 0 0 124.308 65.963 A 14.931 14.931 0 0 0 129.013 56.239 A 20.657 20.657 0 0 0 129.119 54.12 A 19.01 19.01 0 0 0 128.478 49.093 A 15.927 15.927 0 0 0 126.847 45.206 Q 124.574 41.336 120.614 39.134 A 17.417 17.417 0 0 0 114.308 37.106 A 21.957 21.957 0 0 0 111.506 36.932 L 88.636 36.932 Z M 88.636 2.273 L 88.636 34.659 L 111.506 34.659 A 18.215 18.215 0 0 0 115.13 34.318 Q 117.753 33.786 119.744 32.422 Q 123.011 30.185 124.645 26.492 A 19.393 19.393 0 0 0 126.264 19.273 A 22.519 22.519 0 0 0 126.278 18.466 A 20.772 20.772 0 0 0 125.733 13.559 A 13.704 13.704 0 0 0 121.662 6.499 A 15.465 15.465 0 0 0 114.9 2.944 Q 112.26 2.273 109.091 2.273 L 88.636 2.273 Z" id="1" vector-effect="non-scaling-stroke"/></g></svg>